<svg xmlns="http://www.w3.org/2000/svg" xmlns:xlink="http://www.w3.org/1999/xlink" width="400" zoomAndPan="magnify" viewBox="0 0 300 141.000003" height="188" preserveAspectRatio="xMidYMid meet" version="1.0"><defs><g/><clipPath id="ef0d384463"><path d="M 5.390625 22.648438 L 206.464844 22.648438 L 206.464844 117.226562 L 5.390625 117.226562 Z M 5.390625 22.648438 " clip-rule="nonzero"/></clipPath></defs><g clip-path="url(#ef0d384463)"><path fill="#1e4928" d="M 24.410156 117.359375 L 35.460938 81.414062 L 5.394531 58.832031 L 42.992188 58.230469 L 55.179688 22.65625 L 67.367188 58.230469 L 206.367188 63.984375 L 63.578125 63.449219 L 55.179688 38.9375 L 46.78125 63.449219 L 20.875 63.859375 L 41.59375 79.421875 L 33.980469 104.1875 L 56.695312 94.675781 Z M 24.410156 117.359375 " fill-opacity="1" fill-rule="nonzero"/></g><g fill="#5ec576" fill-opacity="1"><g transform="translate(64.16582, 96.063882)"><g><path d="M 2.3125 -0.953125 L 2.65625 -0.21875 L 3.25 0.0625 L 13.703125 -0.0625 L 14.90625 -0.21875 L 15.953125 -0.625 L 17.140625 -1.328125 L 17.5625 -1.640625 L 18.0625 -2.109375 L 18.78125 -3.15625 L 19.078125 -3.75 L 19.203125 -4.296875 L 19.453125 -4.921875 L 19.484375 -7.453125 L 19.359375 -8.046875 L 19.140625 -8.71875 L 18.5625 -9.828125 L 18.125 -10.359375 L 17.65625 -10.828125 L 17.375 -11.53125 L 17.5 -12.15625 L 17.84375 -12.796875 L 18.21875 -13.328125 L 18.65625 -15.59375 L 18.625 -16.515625 L 18.28125 -17.6875 L 17.96875 -18.28125 L 17.78125 -18.890625 L 17.015625 -19.890625 L 16.578125 -20.34375 L 15.625 -21 L 14.46875 -21.625 L 12.6875 -22.046875 L 3.1875 -22.109375 L 2.5625 -21.828125 L 2.28125 -21.15625 L 2.34375 -19.796875 L 2.28125 -18.890625 L 2.40625 -16.765625 L 2.3125 -16.109375 L 2.375 -15.4375 L 2.3125 -14.84375 L 2.34375 -14.171875 L 2.28125 -13.578125 L 2.28125 -11.046875 L 2.375 -10.390625 L 2.3125 -9.796875 L 2.3125 -8.53125 L 2.375 -7.921875 L 2.3125 -5.34375 L 2.40625 -4.046875 L 2.28125 -2.140625 Z M 8.78125 -13.546875 L 8.015625 -13.796875 L 7.703125 -14.4375 L 7.828125 -14.96875 L 7.828125 -15.5625 L 7.765625 -16.171875 L 8.109375 -16.703125 L 8.78125 -17.046875 L 11.046875 -16.953125 L 12.03125 -16.765625 L 12.40625 -16.515625 L 12.828125 -16.078125 L 12.921875 -15.21875 L 12.75 -14.265625 L 12.21875 -13.765625 L 11.140625 -13.546875 Z M 8.6875 -5.015625 L 8.140625 -5.28125 L 7.796875 -5.9375 L 7.828125 -6.46875 L 7.765625 -7.078125 L 7.796875 -7.703125 L 8.015625 -8.28125 L 8.65625 -8.59375 L 12 -8.59375 L 12.890625 -8.4375 L 13.359375 -8.078125 L 13.828125 -7.640625 L 13.890625 -6.75 L 13.828125 -5.9375 L 13.421875 -5.5 L 12.859375 -5.140625 L 11.140625 -4.984375 Z M 8.6875 -5.015625 "/></g></g></g><g fill="#5ec576" fill-opacity="1"><g transform="translate(84.998457, 96.063882)"><g><path d="M 0.40625 -0.859375 L 0.5625 -0.1875 L 1.203125 -0.03125 L 3.984375 -0.03125 L 4.796875 0.0625 L 5.53125 -0.25 L 6.09375 -0.828125 L 6.625 -1.890625 L 7.171875 -2.5 L 7.921875 -2.8125 L 8.5625 -2.75 L 10.328125 -2.78125 L 10.984375 -2.6875 L 11.71875 -2.78125 L 12.28125 -2.78125 L 12.953125 -2.71875 L 14.4375 -2.78125 L 15.46875 -2.4375 L 16.140625 -1.921875 L 16.296875 -1.359375 L 16.640625 -0.796875 L 17.171875 -0.28125 L 18 0.03125 L 18.5625 -0.03125 L 19.671875 0.0625 L 21.625 0 L 22.203125 -0.1875 L 22.328125 -0.859375 L 22.140625 -1.640625 L 21.921875 -2.203125 L 21.5 -2.75 L 21.3125 -3.375 L 21 -3.859375 L 20.8125 -4.453125 L 20.265625 -5.59375 L 20.046875 -6.1875 L 19.734375 -6.71875 L 19.296875 -7.890625 L 18.953125 -8.40625 L 18.6875 -9.03125 L 18.40625 -9.5625 L 18.1875 -10.203125 L 17.90625 -10.671875 L 17.71875 -11.3125 L 17.375 -11.875 L 17.109375 -12.40625 L 16.796875 -12.953125 L 16.640625 -13.546875 L 16.015625 -14.65625 L 15.828125 -15.25 L 15.25 -16.453125 L 15.09375 -16.953125 L 14.625 -18.0625 L 13.984375 -19.234375 L 13.484375 -20.4375 L 13.203125 -20.90625 L 13.015625 -21.5 L 12.4375 -22.109375 L 11.375 -22.390625 L 10.359375 -22.078125 L 9.75 -21.5 L 9.5625 -20.9375 L 8.203125 -18.09375 L 7.859375 -17.53125 L 6.09375 -13.546875 L 5.9375 -13.015625 L 5.59375 -12.4375 L 5.078125 -11.3125 L 4.609375 -10.484375 L 4.390625 -9.890625 L 3.953125 -9.0625 L 3.75 -8.40625 L 3.46875 -7.890625 L 3.25 -7.265625 L 2.375 -5.625 L 1.453125 -3.3125 L 1.078125 -2.8125 L 0.796875 -2.171875 Z M 10.171875 -7.796875 L 9.5625 -8.046875 L 9.46875 -8.6875 L 10.734375 -11.5625 L 11.015625 -12.0625 L 11.4375 -12.375 L 11.8125 -12.125 L 12.21875 -10.890625 L 12.5625 -10.359375 L 12.6875 -9.859375 L 13.015625 -9.21875 L 13.234375 -8.65625 L 13.171875 -8.078125 L 12.625 -7.828125 Z M 10.171875 -7.796875 "/></g></g></g><g fill="#5ec576" fill-opacity="1"><g transform="translate(107.914352, 96.063882)"><g><path d="M 18.625 -0.5 L 19.546875 -0.09375 L 20.375 0.15625 L 21.09375 -0.1875 L 21.375 -0.859375 L 21.53125 -9.4375 L 21.40625 -10.328125 L 21.46875 -11.015625 L 21.34375 -14.8125 L 21.4375 -16.078125 L 21.375 -16.671875 L 21.375 -17.9375 L 21.5 -18.5625 L 21.4375 -19.515625 L 21.5 -21.15625 L 21.125 -21.71875 L 20.4375 -22.046875 L 19.796875 -22.109375 L 19.203125 -22.109375 L 18.5 -22.046875 L 17.84375 -22.140625 L 17.265625 -22.078125 L 16.640625 -22.109375 L 15.890625 -21.78125 L 15.5625 -21.125 L 15.53125 -15.375 L 15.65625 -14.71875 L 15.65625 -14.109375 L 15.53125 -13.453125 L 15.5625 -12.1875 L 15.40625 -11.6875 L 14.96875 -11.8125 L 13.578125 -13.234375 L 13.109375 -13.609375 L 12 -14.75 L 11.5 -15.125 L 11.140625 -15.5625 L 10.484375 -16.265625 L 9.5 -17.078125 L 9.15625 -17.5625 L 8.5625 -17.96875 L 8.234375 -18.4375 L 7.703125 -18.828125 L 7.296875 -19.359375 L 5.59375 -21.09375 L 4.328125 -21.953125 L 3.46875 -22.203125 L 2.71875 -21.828125 L 2.3125 -21.21875 L 2.375 -16.796875 L 2.3125 -16.171875 L 2.40625 -14.875 L 2.34375 -14.3125 L 2.375 -13.640625 L 2.28125 -12.984375 L 2.40625 -8.46875 L 2.34375 -7.890625 L 2.34375 -7.296875 L 2.28125 -6.59375 L 2.28125 -6 L 2.375 -5.34375 L 2.34375 -4.046875 L 2.40625 -3.40625 L 2.3125 -2.203125 L 2.40625 -1.578125 L 2.40625 -0.984375 L 2.6875 -0.28125 L 3.28125 0.0625 L 4.359375 0 L 5.9375 0.09375 L 6.59375 0 L 7.328125 0.0625 L 7.953125 -0.25 L 8.234375 -0.890625 L 8.140625 -1.515625 L 8.234375 -9.25 L 8.109375 -9.921875 L 8.4375 -10.296875 L 8.84375 -10.203125 L 13.359375 -5.78125 L 13.859375 -5.375 L 16.921875 -2.3125 L 17.34375 -1.796875 L 17.84375 -1.390625 L 18.21875 -0.921875 Z M 18.625 -0.5 "/></g></g></g><g fill="#5ec576" fill-opacity="1"><g transform="translate(131.714053, 96.063882)"><g><path d="M 2.4375 -0.953125 L 2.65625 -0.28125 L 3.5625 0.0625 L 6.890625 0.03125 L 7.796875 -0.28125 L 8.109375 -0.984375 L 8.015625 -4.796875 L 8.078125 -5.5 L 8.078125 -7.453125 L 8.375 -8.015625 L 9.15625 -8.40625 L 10.109375 -8.203125 L 10.703125 -7.734375 L 12 -5.59375 L 12.796875 -3.953125 L 13.171875 -3.40625 L 13.453125 -2.875 L 13.859375 -2.34375 L 14.71875 -0.6875 L 15.3125 -0.21875 L 16.390625 0 L 19.890625 0 L 20.5625 0.0625 L 21.09375 -0.21875 L 21.25 -0.953125 L 20.96875 -1.703125 L 20.53125 -2.171875 L 20.203125 -2.71875 L 19.953125 -3.3125 L 19.484375 -3.859375 L 18.890625 -4.921875 L 18.5 -5.4375 L 18.25 -6 L 17.875 -6.5625 L 16.953125 -8.203125 L 15.859375 -9.796875 L 15.859375 -10.484375 L 16.140625 -11.203125 L 16.703125 -11.5625 L 17.625 -12.46875 L 18.3125 -13.546875 L 18.625 -14.140625 L 18.78125 -14.71875 L 19.078125 -15.375 L 19.390625 -16.578125 L 19.421875 -17.171875 L 19.609375 -18.5 L 19.546875 -19.203125 L 19.671875 -19.796875 L 19.640625 -21.0625 L 19.390625 -21.78125 L 18.71875 -22.140625 L 15.859375 -22.046875 L 14.9375 -22.140625 L 14.171875 -21.75 L 13.828125 -21.09375 L 13.921875 -19.171875 L 13.765625 -17.84375 L 13.453125 -16.578125 L 13.203125 -15.984375 L 12.796875 -15.5 L 12.40625 -15 L 11.9375 -14.59375 L 11.375 -14.234375 L 10.828125 -13.984375 L 9.4375 -13.703125 L 8.6875 -13.671875 L 8.109375 -14.015625 L 8.140625 -14.6875 L 8.046875 -15.25 L 8.140625 -19.828125 L 8.046875 -20.4375 L 8.015625 -21.0625 L 7.703125 -21.75 L 7.140625 -22.078125 L 6.46875 -22.140625 L 5.84375 -22.078125 L 3.28125 -22.140625 L 2.78125 -21.71875 L 2.34375 -21.15625 L 2.34375 -20.5 L 2.40625 -19.859375 L 2.3125 -17.96875 L 2.34375 -17.375 L 2.4375 -16.734375 L 2.28125 -15.46875 L 2.375 -14.8125 L 2.4375 -7.234375 L 2.34375 -6.65625 L 2.375 -6 L 2.28125 -4.734375 L 2.4375 -3.46875 L 2.375 -2.78125 L 2.40625 -2.140625 L 2.34375 -1.578125 Z M 2.4375 -0.953125 "/></g></g></g><g fill="#5ec576" fill-opacity="1"><g transform="translate(153.588319, 96.063882)"><g><path d="M 1.515625 -0.921875 L 1.828125 -0.25 L 2.46875 -0.03125 L 11.84375 0.03125 L 12.4375 -0.28125 L 12.796875 -0.859375 L 12.796875 -1.546875 L 12.71875 -2.109375 L 12.828125 -4.046875 L 12.375 -4.578125 L 10.265625 -5.234375 L 9.921875 -5.875 L 9.984375 -8.46875 L 9.859375 -9.71875 L 9.984375 -11.046875 L 9.921875 -12 L 9.984375 -12.984375 L 9.921875 -13.578125 L 9.984375 -14.203125 L 9.921875 -14.875 L 9.921875 -16.203125 L 10.265625 -16.765625 L 10.859375 -17.109375 L 11.5625 -17.140625 L 12.15625 -17.5 L 12.5 -18.09375 L 12.5 -19.953125 L 12.5625 -20.53125 L 12.5 -21.15625 L 12.25 -21.78125 L 11.234375 -22.078125 L 7.234375 -22.109375 L 6.53125 -22.046875 L 4.609375 -22.078125 L 4.015625 -22.046875 L 2.78125 -22.109375 L 2.078125 -21.78125 L 1.734375 -21.125 L 1.734375 -20.53125 L 1.671875 -19.984375 L 1.671875 -19.296875 L 1.734375 -18.65625 L 1.734375 -18.0625 L 2.046875 -17.46875 L 3.984375 -16.796875 L 4.390625 -16.234375 L 4.296875 -13.546875 L 4.328125 -13.015625 L 4.421875 -12.28125 L 4.390625 -10.984375 L 4.328125 -10.359375 L 4.453125 -9.125 L 4.296875 -8.5 L 4.421875 -7.140625 L 4.359375 -5.90625 L 4.046875 -5.203125 L 1.953125 -4.546875 L 1.578125 -3.953125 L 1.515625 -3.34375 Z M 1.515625 -0.921875 "/></g></g></g><g fill="#5ec576" fill-opacity="1"><g transform="translate(167.918644, 96.063882)"><g><path d="M 9.15625 0.25 L 10.078125 0.34375 L 11.078125 0.3125 L 14.171875 -0.28125 L 15.828125 -1.171875 L 16.828125 -1.859375 L 17.71875 -2.875 L 18.34375 -3.890625 L 18.59375 -4.453125 L 18.78125 -5.078125 L 18.890625 -5.65625 L 18.921875 -7.609375 L 18.828125 -8.234375 L 18.65625 -8.84375 L 18.03125 -10.015625 L 17.265625 -10.984375 L 16.734375 -11.4375 L 15.0625 -12.1875 L 12.46875 -12.828125 L 9.28125 -13.234375 L 7.953125 -13.703125 L 7.484375 -13.953125 L 6.984375 -14.46875 L 6.953125 -15.3125 L 7.046875 -16.140625 L 7.390625 -16.578125 L 7.921875 -16.984375 L 8.375 -17.171875 L 8.9375 -17.3125 L 10.953125 -17.375 L 11.65625 -17.109375 L 12.125 -16.734375 L 13.171875 -15.625 L 14.140625 -15.3125 L 16.234375 -15.25 L 16.796875 -15.3125 L 17.40625 -15.25 L 18 -15.625 L 18.28125 -16.234375 L 18.03125 -17.46875 L 17.53125 -18.59375 L 17.109375 -19.109375 L 16.796875 -19.609375 L 16.390625 -20.078125 L 14.375 -21.46875 L 12.625 -22.078125 L 11.96875 -22.203125 L 11.40625 -22.265625 L 10.703125 -22.421875 L 8.9375 -22.390625 L 6.4375 -21.890625 L 5.875 -21.65625 L 5.375 -21.34375 L 4.859375 -21.15625 L 4.234375 -20.78125 L 3.796875 -20.375 L 3.21875 -19.984375 L 2.875 -19.453125 L 2.46875 -19.046875 L 2.234375 -18.46875 L 1.921875 -17.96875 L 1.484375 -16.140625 L 1.515625 -14.015625 L 1.734375 -13.140625 L 2.140625 -12.03125 L 2.9375 -10.984375 L 3.828125 -10.171875 L 4.921875 -9.5 L 6.71875 -8.90625 L 7.859375 -8.65625 L 10.453125 -8.46875 L 11.015625 -8.375 L 11.65625 -8.34375 L 12.796875 -7.859375 L 13.234375 -7.484375 L 13.390625 -6.65625 L 13.203125 -5.84375 L 12.6875 -5.40625 L 12.1875 -5.109375 L 11.015625 -4.765625 L 10.140625 -4.734375 L 9.1875 -4.796875 L 8.46875 -4.984375 L 7.984375 -5.203125 L 7.421875 -5.5625 L 6.953125 -6 L 6.46875 -6.625 L 5.84375 -6.890625 L 3.4375 -6.953125 L 2.8125 -6.890625 L 2.171875 -6.921875 L 1.546875 -6.625 L 1.328125 -5.96875 L 1.390625 -5.28125 L 1.515625 -4.703125 L 2.015625 -3.4375 L 2.8125 -2.46875 L 3.71875 -1.546875 L 4.265625 -1.203125 L 6.53125 -0.15625 L 7.234375 -0.0625 L 7.828125 0.15625 Z M 9.15625 0.25 "/></g></g></g><g fill="#5ec576" fill-opacity="1"><g transform="translate(188.056861, 96.063882)"><g><path d="M 6.0625 -0.984375 L 6.3125 -0.3125 L 6.984375 0 L 7.578125 -0.0625 L 8.203125 0 L 8.8125 -0.0625 L 10.765625 -0.0625 L 11.40625 -0.3125 L 11.65625 -0.953125 L 11.625 -1.546875 L 11.6875 -2.28125 L 11.65625 -3.53125 L 11.5625 -4.078125 L 11.65625 -4.734375 L 11.71875 -6.65625 L 11.65625 -7.234375 L 11.75 -8.5625 L 11.625 -14.84375 L 11.71875 -15.46875 L 11.65625 -16.171875 L 11.90625 -16.734375 L 12.59375 -17.015625 L 13.140625 -17.046875 L 13.765625 -17.015625 L 14.34375 -17.078125 L 16.078125 -17.046875 L 16.796875 -17.34375 L 17.109375 -17.96875 L 17.046875 -18.625 L 17.109375 -21.21875 L 16.796875 -21.859375 L 16.171875 -22.171875 L 15.40625 -22.109375 L 14.90625 -22.171875 L 14.3125 -22.171875 L 13.609375 -22.078125 L 12.984375 -22.078125 L 12.34375 -22.140625 L 11.71875 -22.140625 L 10.984375 -22.046875 L 1.578125 -22.109375 L 0.890625 -21.78125 L 0.5625 -21.15625 L 0.53125 -18 L 0.890625 -17.3125 L 1.515625 -16.984375 L 2.34375 -17.078125 L 5.140625 -17.046875 L 5.71875 -16.703125 L 6.03125 -16.109375 L 6.125 -12.625 L 6.03125 -11.65625 L 6.09375 -11.046875 L 6.03125 -10.421875 L 6.03125 -9.15625 L 6.125 -8.234375 L 6 -7.296875 L 6.03125 -6.65625 L 6 -6 L 6.09375 -4.078125 L 6.03125 -3.4375 Z M 6.0625 -0.984375 "/></g></g></g><g fill="#5ec576" fill-opacity="1"><g transform="translate(205.701472, 96.063882)"><g/></g></g><g fill="#5ec576" fill-opacity="1"><g transform="translate(214.25548, 96.063882)"><g><path d="M 0.40625 -0.859375 L 0.5625 -0.1875 L 1.203125 -0.03125 L 3.984375 -0.03125 L 4.796875 0.0625 L 5.53125 -0.25 L 6.09375 -0.828125 L 6.625 -1.890625 L 7.171875 -2.5 L 7.921875 -2.8125 L 8.5625 -2.75 L 10.328125 -2.78125 L 10.984375 -2.6875 L 11.71875 -2.78125 L 12.28125 -2.78125 L 12.953125 -2.71875 L 14.4375 -2.78125 L 15.46875 -2.4375 L 16.140625 -1.921875 L 16.296875 -1.359375 L 16.640625 -0.796875 L 17.171875 -0.28125 L 18 0.03125 L 18.5625 -0.03125 L 19.671875 0.0625 L 21.625 0 L 22.203125 -0.1875 L 22.328125 -0.859375 L 22.140625 -1.640625 L 21.921875 -2.203125 L 21.5 -2.75 L 21.3125 -3.375 L 21 -3.859375 L 20.8125 -4.453125 L 20.265625 -5.59375 L 20.046875 -6.1875 L 19.734375 -6.71875 L 19.296875 -7.890625 L 18.953125 -8.40625 L 18.6875 -9.03125 L 18.40625 -9.5625 L 18.1875 -10.203125 L 17.90625 -10.671875 L 17.71875 -11.3125 L 17.375 -11.875 L 17.109375 -12.40625 L 16.796875 -12.953125 L 16.640625 -13.546875 L 16.015625 -14.65625 L 15.828125 -15.25 L 15.25 -16.453125 L 15.09375 -16.953125 L 14.625 -18.0625 L 13.984375 -19.234375 L 13.484375 -20.4375 L 13.203125 -20.90625 L 13.015625 -21.5 L 12.4375 -22.109375 L 11.375 -22.390625 L 10.359375 -22.078125 L 9.75 -21.5 L 9.5625 -20.9375 L 8.203125 -18.09375 L 7.859375 -17.53125 L 6.09375 -13.546875 L 5.9375 -13.015625 L 5.59375 -12.4375 L 5.078125 -11.3125 L 4.609375 -10.484375 L 4.390625 -9.890625 L 3.953125 -9.0625 L 3.75 -8.40625 L 3.46875 -7.890625 L 3.25 -7.265625 L 2.375 -5.625 L 1.453125 -3.3125 L 1.078125 -2.8125 L 0.796875 -2.171875 Z M 10.171875 -7.796875 L 9.5625 -8.046875 L 9.46875 -8.6875 L 10.734375 -11.5625 L 11.015625 -12.0625 L 11.4375 -12.375 L 11.8125 -12.125 L 12.21875 -10.890625 L 12.5625 -10.359375 L 12.6875 -9.859375 L 13.015625 -9.21875 L 13.234375 -8.65625 L 13.171875 -8.078125 L 12.625 -7.828125 Z M 10.171875 -7.796875 "/></g></g></g><g fill="#5ec576" fill-opacity="1"><g transform="translate(237.171376, 96.063882)"><g><path d="M 2.34375 -0.984375 L 2.59375 -0.3125 L 3.25 -0.0625 L 3.890625 0 L 5.75 -0.03125 L 6.4375 0.03125 L 7.109375 0.03125 L 7.734375 -0.3125 L 8.015625 -0.984375 L 8.046875 -2.234375 L 7.984375 -2.84375 L 8.078125 -3.40625 L 8.015625 -4.109375 L 8.015625 -4.765625 L 8.234375 -5.3125 L 9.09375 -5.625 L 9.796875 -5.71875 L 10.734375 -5.625 L 12.375 -5.65625 L 13.671875 -5.90625 L 15.5 -6.4375 L 16.578125 -7.109375 L 17.078125 -7.484375 L 18.03125 -8.40625 L 19.046875 -9.921875 L 19.328125 -10.484375 L 19.546875 -11.046875 L 19.828125 -12.34375 L 19.890625 -12.921875 L 19.921875 -14.78125 L 19.359375 -17.234375 L 18.71875 -18.375 L 18.3125 -18.921875 L 17.90625 -19.359375 L 17.5625 -19.828125 L 17.015625 -20.3125 L 16.078125 -20.9375 L 14.9375 -21.53125 L 14.265625 -21.65625 L 13.640625 -21.921875 L 13.078125 -22.046875 L 3.625 -22.078125 L 2.78125 -21.78125 L 2.46875 -21.1875 L 2.40625 -20.53125 L 2.40625 -19.234375 L 2.3125 -18.65625 L 2.3125 -18.0625 L 2.40625 -17.40625 L 2.40625 -14.171875 L 2.34375 -13.546875 L 2.40625 -12.984375 L 2.34375 -12.28125 L 2.4375 -10.984375 L 2.3125 -10.140625 L 2.40625 -9.1875 L 2.34375 -8.59375 L 2.34375 -7.265625 L 2.4375 -6.65625 L 2.34375 -5.40625 L 2.4375 -3.40625 L 2.28125 -2.78125 L 2.40625 -2.171875 L 2.3125 -1.578125 Z M 9.03125 -10.765625 L 8.4375 -11.046875 L 8.046875 -11.6875 L 7.984375 -16.078125 L 8.375 -16.765625 L 9 -17.015625 L 9.796875 -17.078125 L 12.3125 -16.953125 L 12.859375 -16.671875 L 13.328125 -16.328125 L 13.828125 -15.859375 L 14.140625 -15.3125 L 14.4375 -13.828125 L 14.078125 -12.375 L 13.359375 -11.5 L 12.859375 -11.140625 L 12.34375 -10.859375 L 9.75 -10.703125 Z M 9.03125 -10.765625 "/></g></g></g><g fill="#5ec576" fill-opacity="1"><g transform="translate(257.940875, 96.063882)"><g><path d="M 2.34375 -0.984375 L 2.59375 -0.3125 L 3.25 -0.0625 L 3.890625 0 L 5.75 -0.03125 L 6.4375 0.03125 L 7.109375 0.03125 L 7.734375 -0.3125 L 8.015625 -0.984375 L 8.046875 -2.234375 L 7.984375 -2.84375 L 8.078125 -3.40625 L 8.015625 -4.109375 L 8.015625 -4.765625 L 8.234375 -5.3125 L 9.09375 -5.625 L 9.796875 -5.71875 L 10.734375 -5.625 L 12.375 -5.65625 L 13.671875 -5.90625 L 15.5 -6.4375 L 16.578125 -7.109375 L 17.078125 -7.484375 L 18.03125 -8.40625 L 19.046875 -9.921875 L 19.328125 -10.484375 L 19.546875 -11.046875 L 19.828125 -12.34375 L 19.890625 -12.921875 L 19.921875 -14.78125 L 19.359375 -17.234375 L 18.71875 -18.375 L 18.3125 -18.921875 L 17.90625 -19.359375 L 17.5625 -19.828125 L 17.015625 -20.3125 L 16.078125 -20.9375 L 14.9375 -21.53125 L 14.265625 -21.65625 L 13.640625 -21.921875 L 13.078125 -22.046875 L 3.625 -22.078125 L 2.78125 -21.78125 L 2.46875 -21.1875 L 2.40625 -20.53125 L 2.40625 -19.234375 L 2.3125 -18.65625 L 2.3125 -18.0625 L 2.40625 -17.40625 L 2.40625 -14.171875 L 2.34375 -13.546875 L 2.40625 -12.984375 L 2.34375 -12.28125 L 2.4375 -10.984375 L 2.3125 -10.140625 L 2.40625 -9.1875 L 2.34375 -8.59375 L 2.34375 -7.265625 L 2.4375 -6.65625 L 2.34375 -5.40625 L 2.4375 -3.40625 L 2.28125 -2.78125 L 2.40625 -2.171875 L 2.3125 -1.578125 Z M 9.03125 -10.765625 L 8.4375 -11.046875 L 8.046875 -11.6875 L 7.984375 -16.078125 L 8.375 -16.765625 L 9 -17.015625 L 9.796875 -17.078125 L 12.3125 -16.953125 L 12.859375 -16.671875 L 13.328125 -16.328125 L 13.828125 -15.859375 L 14.140625 -15.3125 L 14.4375 -13.828125 L 14.078125 -12.375 L 13.359375 -11.5 L 12.859375 -11.140625 L 12.34375 -10.859375 L 9.75 -10.703125 Z M 9.03125 -10.765625 "/></g></g></g></svg>